<svg width="144" height="154" viewBox="0 0 144 154" fill="none" xmlns="http://www.w3.org/2000/svg">
<path d="M12.3125 71.9375H38.625V54.3125C38.625 49.1875 38.9167 46 39.5 44.75C40.0417 43.4583 41.2708 42.8125 43.1875 42.8125C45.3542 42.8125 46.7292 43.5833 47.3125 45.125C47.8958 46.6667 48.1875 50 48.1875 55.125V102.125C48.1875 107.042 47.8958 110.25 47.3125 111.75C46.7292 113.25 45.4167 114 43.375 114C41.4167 114 40.1458 113.25 39.5625 111.75C38.9375 110.25 38.625 106.729 38.625 101.188V88.5H12.3125V92.4375C12.3125 102.896 13.0625 110.312 14.5625 114.688C16.0208 119.062 19.2917 122.896 24.375 126.188C29.4167 129.479 35.6458 131.125 43.0625 131.125C50.7708 131.125 57.125 129.729 62.125 126.938C67.125 124.146 70.4375 120.292 72.0625 115.375C73.6875 110.417 74.5 102.979 74.5 93.0625V63.5C74.5 56.2083 74.25 50.75 73.75 47.125C73.25 43.4583 71.7708 39.9375 69.3125 36.5625C66.8125 33.1875 63.375 30.5417 59 28.625C54.5833 26.6667 49.5208 25.6875 43.8125 25.6875C36.0625 25.6875 29.6667 27.1875 24.625 30.1875C19.5833 33.1875 16.2708 36.9375 14.6875 41.4375C13.1042 45.8958 12.3125 52.8542 12.3125 62.3125V71.9375Z" fill="black"/>
<path d="M136.688 71.9375H110.375V54.3125C110.375 49.1875 110.083 46 109.5 44.75C108.958 43.4583 107.729 42.8125 105.812 42.8125C103.646 42.8125 102.271 43.5833 101.688 45.125C101.104 46.6667 100.812 50 100.812 55.125V102.125C100.812 107.042 101.104 110.25 101.688 111.75C102.271 113.25 103.583 114 105.625 114C107.583 114 108.854 113.25 109.438 111.75C110.062 110.25 110.375 106.729 110.375 101.188V88.5H136.688V92.4375C136.688 102.896 135.938 110.312 134.438 114.688C132.979 119.062 129.708 122.896 124.625 126.188C119.583 129.479 113.354 131.125 105.938 131.125C98.2292 131.125 91.875 129.729 86.875 126.938C81.875 124.146 78.5625 120.292 76.9375 115.375C75.3125 110.417 74.5 102.979 74.5 93.0625V63.5C74.5 56.2083 74.75 50.75 75.25 47.125C75.75 43.4583 77.2292 39.9375 79.6875 36.5625C82.1875 33.1875 85.625 30.5417 90 28.625C94.4167 26.6667 99.4792 25.6875 105.188 25.6875C112.938 25.6875 119.333 27.1875 124.375 30.1875C129.417 33.1875 132.729 36.9375 134.312 41.4375C135.896 45.8958 136.688 52.8542 136.688 62.3125V71.9375Z" fill="black"/>
</svg>
